<svg width="119" height="117" viewBox="0 0 119 117" fill="none" xmlns="http://www.w3.org/2000/svg">
<path d="M17.7891 7.875V11.5137H6.27539V20.1094H17.7891V23.748H6.27539V32.3438H17.7891V36H2.63672V7.875H17.7891ZM26.8242 7.875L35.9473 23.6426L45.0352 7.875H48.3574V36H44.7188V15.6797L35.9473 30.8672L27.1406 15.6797V36H23.502V7.875H26.8242ZM58.4824 7.875V36H54.8438V7.875H58.4824ZM64.125 36V7.875H67.7637V32.3438H77.8184V36H64.125ZM89.209 21.5684C87.2168 20.9004 85.5996 19.9512 84.3574 18.7207C83.127 17.4785 82.5117 15.9434 82.5117 14.1152C82.5117 12.3223 83.1504 10.7812 84.4277 9.49219C85.7168 8.20313 87.2754 7.55859 89.1035 7.55859C90.9082 7.55859 92.4551 8.19727 93.7441 9.47461C94.4707 10.1777 95.0801 11.2969 95.5723 12.832L92.2676 14.1328C91.8691 13.0547 91.5059 12.3516 91.1777 12.0234C90.6035 11.4609 89.9121 11.1797 89.1035 11.1797C88.2832 11.1797 87.5859 11.4668 87.0117 12.041C86.4375 12.6035 86.1504 13.2949 86.1504 14.1152C86.1504 14.9355 86.4375 15.6328 87.0117 16.207C87.6562 16.8398 88.5469 17.4199 89.6836 17.9473C91.8867 18.6621 93.7559 19.7871 95.291 21.3223C97.0137 23.0215 97.875 25.084 97.875 27.5098C97.875 29.9355 97.0137 32.0098 95.291 33.7324C93.5801 35.4434 91.5176 36.2988 89.1035 36.2988C86.6777 36.2988 84.6094 35.4375 82.8984 33.7148C81.5273 32.3438 80.6602 30.4512 80.2969 28.0371L83.8301 26.7539C84.0527 28.8281 84.5977 30.2988 85.4648 31.166C86.4727 32.1738 87.6855 32.6777 89.1035 32.6777C90.5215 32.6777 91.7344 32.1738 92.7422 31.166C93.75 30.1582 94.2539 28.9395 94.2539 27.5098C94.2539 26.0918 93.75 24.8789 92.7422 23.8711C91.7812 22.9102 90.6035 22.1426 89.209 21.5684ZM116.578 7.875V11.5137H105.064V20.1094H116.578V23.748H105.064V32.3438H116.578V36H101.426V7.875H116.578Z" fill="black"/>
<path d="M8.33203 78.875C9.96094 78.875 11.3555 79.4551 12.5156 80.6152C13.6758 81.7637 14.2559 83.1523 14.2559 84.7812C14.2559 86.457 13.4121 87.4941 11.7246 87.8926C12.9434 88.0684 14.3262 88.9355 15.873 90.4941C17.4316 92.0527 18.2109 94.209 18.2109 96.9629C18.2109 99.7168 17.2441 102.096 15.3105 104.1C13.4941 105.986 11.6719 106.941 9.84375 106.965V107H2.63672V78.875H8.33203ZM6.27539 90.7051V103.344H9.84375V103.291C10.5938 103.244 11.5254 102.641 12.6387 101.48C13.8691 100.215 14.4844 98.709 14.4844 96.9629C14.4844 95.2402 13.8691 93.7695 12.6387 92.5508C11.4199 91.3203 9.94922 90.7051 8.22656 90.7051H6.27539ZM6.27539 82.5137V86.9609H8.64844C9.1875 86.9141 9.65039 86.709 10.0371 86.3457C10.459 85.959 10.6699 85.4375 10.6699 84.7812C10.6699 84.125 10.4473 83.5859 10.002 83.1641C9.56836 82.7305 9.01172 82.5137 8.33203 82.5137H6.27539ZM26.9599 78.875V107H23.3213V78.875H26.9599ZM33.1425 78.875H36.4648L48.0663 98.9492V78.875H51.7226V107H48.5409L36.7812 86.6797V107H33.1425V78.875ZM81.4071 103.15C78.5126 105.916 75.202 107.299 71.4755 107.299C67.5028 107.299 64.1161 105.898 61.3153 103.098C58.5145 100.297 57.1141 96.9102 57.1141 92.9375C57.1141 88.9766 58.5145 85.5898 61.3153 82.7773C64.1161 79.9648 67.5028 78.5586 71.4755 78.5586C75.1903 78.5586 78.7118 80.0762 82.0399 83.1113L79.3153 85.5898C76.8075 83.3633 74.1942 82.25 71.4755 82.25C68.5341 82.25 66.0145 83.293 63.9169 85.3789C61.8309 87.4648 60.788 89.9844 60.788 92.9375C60.788 95.9023 61.8309 98.4277 63.9169 100.514C66.0145 102.6 68.5341 103.643 71.4755 103.643C74.0067 103.643 76.1044 102.975 77.7684 101.639V93.1484H81.4071V103.15ZM101.371 78.5059C105.344 78.5059 108.736 79.9121 111.549 82.7246C114.361 85.5371 115.767 88.9297 115.767 92.9023C115.767 96.875 114.361 100.268 111.549 103.08C108.736 105.893 105.344 107.299 101.371 107.299C97.3983 107.299 94.0057 105.893 91.1932 103.08C88.3807 100.268 86.9745 96.875 86.9745 92.9023C86.9745 88.9297 88.3807 85.5371 91.1932 82.7246C94.0057 79.9121 97.3983 78.5059 101.371 78.5059ZM101.371 82.1797C98.4061 82.1797 95.8748 83.2285 93.7772 85.3262C91.6913 87.4121 90.6483 89.9375 90.6483 92.9023C90.6483 95.8672 91.6971 98.3984 93.7948 100.496C95.8924 102.594 98.4178 103.643 101.371 103.643C104.336 103.643 106.861 102.594 108.947 100.496C111.045 98.3984 112.094 95.8672 112.094 92.9023C112.094 89.9375 111.045 87.4121 108.947 85.3262C106.861 83.2285 104.336 82.1797 101.371 82.1797Z" fill="black"/>
<path d="M7.62891 42.875C9.07031 42.875 10.3008 43.3848 11.3203 44.4043C12.3516 45.4238 12.8672 46.6543 12.8672 48.0957C12.8672 49.5488 12.123 50.9023 10.6348 52.1562C11.9473 52.4258 13.1836 53.1992 14.3438 54.4766C16.2188 56.3633 17.1562 58.6426 17.1562 61.3145C17.1562 63.9746 16.2188 66.2773 14.3438 68.2227C12.5977 70.0273 10.5117 70.9473 8.08594 70.9824V71H2.63672V42.875H7.62891ZM4.21875 53.334V69.418H8.08594V69.4355C10.043 69.3066 11.7305 68.5039 13.1484 67.0273C14.707 65.4219 15.4863 63.5176 15.4863 61.3145C15.4863 59.1113 14.707 57.2305 13.1484 55.6719C11.5898 54.1133 9.70898 53.334 7.50586 53.334H4.21875ZM4.21875 44.457V51.6465H8.0332C8.91211 51.5645 9.66211 51.2363 10.2832 50.6621C10.998 50.0059 11.3555 49.1504 11.3555 48.0957C11.3555 47.041 10.998 46.1738 10.2832 45.4941C9.56836 44.8027 8.68359 44.457 7.62891 44.457H4.21875ZM32.8486 42.875V71H31.2666V42.875H32.8486ZM48.0136 71V42.875H49.5956V69.418H60.4941V71H48.0136ZM81.2489 55.4258C79.245 54.7578 77.663 53.8438 76.5028 52.6836C75.3427 51.5234 74.7626 50.1172 74.7626 48.4648C74.7626 46.8477 75.3427 45.459 76.5028 44.2988C77.663 43.127 79.0692 42.541 80.7216 42.541C82.3622 42.541 83.7684 43.1211 84.9403 44.2812C85.5848 44.9023 86.0302 45.5996 86.2763 46.373L84.8524 46.9355C84.6415 46.3613 84.2958 45.834 83.8153 45.3535C82.9598 44.5098 81.9286 44.0879 80.7216 44.0879C79.5145 44.0879 78.4833 44.5156 77.6278 45.3711C76.7723 46.2148 76.3446 47.2461 76.3446 48.4648C76.3446 49.6719 76.7723 50.7031 77.6278 51.5586C78.4247 52.3438 79.5263 53.0645 80.9325 53.7207C83.1825 54.4473 85.0751 55.5781 86.6102 57.1133C88.2391 58.7305 89.0536 60.6875 89.0536 62.9844C89.0536 65.293 88.2391 67.2617 86.6102 68.8906C84.9813 70.5195 83.0184 71.334 80.7216 71.334C78.4247 71.334 76.4618 70.5137 74.8329 68.873C73.5321 67.5723 72.7528 66.0605 72.495 64.3379L73.9891 63.793C74.1532 65.3164 74.8036 66.6465 75.9403 67.7832C77.2645 69.1074 78.8583 69.7695 80.7216 69.7695C82.5966 69.7695 84.1962 69.1074 85.5204 67.7832C86.8446 66.459 87.5067 64.8594 87.5067 62.9844C87.5067 61.1211 86.8446 59.5273 85.5204 58.2031C84.3602 57.043 82.9364 56.1172 81.2489 55.4258ZM116.172 42.875V44.457H103.691V56.1465H116.172V57.7285H103.691V69.418H116.172V71H102.109V42.875H116.172Z" fill="black"/>
</svg>
